# MagicaVoxel @ Ephtracy

# group
o 

# material
mtllib Pipe.mtl
usemtl palette

# normals
vn -1 0 0
vn 1 0 0
vn 0 0 1
vn 0 0 -1
vn 0 -1 0
vn 0 1 0

# texcoords
vt 0.880859 0.5
vt 0.892578 0.5
vt 0.896484 0.5
vt 0.900391 0.5

# verts
v -0.5 0 0.4
v -0.5 0 -0.4
v -0.5 0.3 0.4
v -0.5 0.3 -0.4
v -0.5 4.7 0.4
v -0.5 4.7 -0.4
v -0.5 5 0.4
v -0.5 5 -0.4
v -0.4 0 0.5
v -0.4 0 0.4
v -0.4 0 -0.4
v -0.4 0 -0.5
v -0.4 0.3 0.5
v -0.4 0.3 0.4
v -0.4 0.3 0.3
v -0.4 0.3 -0.3
v -0.4 0.3 -0.4
v -0.4 0.3 -0.5
v -0.4 4.7 0.5
v -0.4 4.7 0.4
v -0.4 4.7 0.3
v -0.4 4.7 -0.3
v -0.4 4.7 -0.4
v -0.4 4.7 -0.5
v -0.4 5 0.5
v -0.4 5 0.4
v -0.4 5 -0.4
v -0.4 5 -0.5
v -0.3 0.3 0.4
v -0.3 0.3 0.3
v -0.3 0.3 -0.3
v -0.3 0.3 -0.4
v -0.3 4.7 0.4
v -0.3 4.7 0.3
v -0.3 4.7 -0.3
v -0.3 4.7 -0.4
v 0.3 0.3 0.4
v 0.3 0.3 0.3
v 0.3 0.3 -0.3
v 0.3 0.3 -0.4
v 0.3 4.7 0.4
v 0.3 4.7 0.3
v 0.3 4.7 -0.3
v 0.3 4.7 -0.4
v 0.4 0 0.5
v 0.4 0 0.4
v 0.4 0 -0.4
v 0.4 0 -0.5
v 0.4 0.3 0.5
v 0.4 0.3 0.4
v 0.4 0.3 0.3
v 0.4 0.3 -0.3
v 0.4 0.3 -0.4
v 0.4 0.3 -0.5
v 0.4 4.7 0.5
v 0.4 4.7 0.4
v 0.4 4.7 0.3
v 0.4 4.7 -0.3
v 0.4 4.7 -0.4
v 0.4 4.7 -0.5
v 0.4 5 0.5
v 0.4 5 0.4
v 0.4 5 -0.4
v 0.4 5 -0.5
v 0.5 0 0.4
v 0.5 0 -0.4
v 0.5 0.3 0.4
v 0.5 0.3 -0.4
v 0.5 4.7 0.4
v 0.5 4.7 -0.4
v 0.5 5 0.4
v 0.5 5 -0.4
v -0.4 0 0.5
v -0.4 0.3 0.5
v -0.4 4.7 0.5
v -0.4 5 0.5
v -0.2 0 0.5
v -0.2 0.3 0.5
v -0.2 4.7 0.5
v -0.2 5 0.5
v 0 0 0.5
v 0 0.3 0.5
v 0 4.7 0.5
v 0 5 0.5
v 0.1 0 0.5
v 0.1 0.3 0.5
v 0.1 4.7 0.5
v 0.1 5 0.5
v 0.4 0 0.5
v 0.4 0.3 0.5
v 0.4 4.7 0.5
v 0.4 5 0.5
v -0.5 0 0.4
v -0.5 0.3 0.4
v -0.5 4.7 0.4
v -0.5 5 0.4
v -0.4 0 0.4
v -0.4 0.3 0.4
v -0.4 4.7 0.4
v -0.4 5 0.4
v -0.3 0.3 0.4
v -0.3 4.7 0.4
v -0.2 0.3 0.4
v -0.2 4.7 0.4
v -0.1 0.3 0.4
v -0.1 4.7 0.4
v 0 0.3 0.4
v 0 4.7 0.4
v 0.1 0.3 0.4
v 0.1 4.7 0.4
v 0.3 0.3 0.4
v 0.3 4.7 0.4
v 0.4 0 0.4
v 0.4 0.3 0.4
v 0.4 4.7 0.4
v 0.4 5 0.4
v 0.5 0 0.4
v 0.5 0.3 0.4
v 0.5 4.7 0.4
v 0.5 5 0.4
v -0.4 0.3 0.3
v -0.4 4.7 0.3
v -0.3 0.3 0.3
v -0.3 4.7 0.3
v 0.3 0.3 0.3
v 0.3 4.7 0.3
v 0.4 0.3 0.3
v 0.4 4.7 0.3
v -0.4 0.3 -0.3
v -0.4 4.7 -0.3
v -0.3 0.3 -0.3
v -0.3 4.7 -0.3
v 0.3 0.3 -0.3
v 0.3 4.7 -0.3
v 0.4 0.3 -0.3
v 0.4 4.7 -0.3
v -0.5 0 -0.4
v -0.5 0.3 -0.4
v -0.5 4.7 -0.4
v -0.5 5 -0.4
v -0.4 0 -0.4
v -0.4 0.3 -0.4
v -0.4 4.7 -0.4
v -0.4 5 -0.4
v -0.3 0.3 -0.4
v -0.3 4.7 -0.4
v 0.3 0.3 -0.4
v 0.3 4.7 -0.4
v 0.4 0 -0.4
v 0.4 0.3 -0.4
v 0.4 4.7 -0.4
v 0.4 5 -0.4
v 0.5 0 -0.4
v 0.5 0.3 -0.4
v 0.5 4.7 -0.4
v 0.5 5 -0.4
v -0.4 0 -0.5
v -0.4 0.3 -0.5
v -0.4 4.7 -0.5
v -0.4 5 -0.5
v 0.4 0 -0.5
v 0.4 0.3 -0.5
v 0.4 4.7 -0.5
v 0.4 5 -0.5
v -0.4 0 0.5
v -0.2 0 0.5
v 0 0 0.5
v 0.1 0 0.5
v 0.4 0 0.5
v -0.5 0 0.4
v -0.4 0 0.4
v -0.2 0 0.4
v 0 0 0.4
v 0.1 0 0.4
v 0.4 0 0.4
v 0.5 0 0.4
v 0.1 0 0.3
v 0.4 0 0.3
v -0.5 0 -0.4
v -0.4 0 -0.4
v 0.4 0 -0.4
v 0.5 0 -0.4
v -0.4 0 -0.5
v 0.4 0 -0.5
v -0.4 4.7 0.5
v -0.2 4.7 0.5
v 0 4.7 0.5
v 0.1 4.7 0.5
v 0.4 4.7 0.5
v -0.5 4.7 0.4
v -0.4 4.7 0.4
v -0.3 4.7 0.4
v -0.2 4.7 0.4
v -0.1 4.7 0.4
v 0 4.7 0.4
v 0.1 4.7 0.4
v 0.3 4.7 0.4
v 0.4 4.7 0.4
v 0.5 4.7 0.4
v -0.4 4.7 0.3
v -0.3 4.7 0.3
v 0.3 4.7 0.3
v 0.4 4.7 0.3
v -0.4 4.7 -0.3
v -0.3 4.7 -0.3
v 0.3 4.7 -0.3
v 0.4 4.7 -0.3
v -0.5 4.7 -0.4
v -0.4 4.7 -0.4
v -0.3 4.7 -0.4
v 0.3 4.7 -0.4
v 0.4 4.7 -0.4
v 0.5 4.7 -0.4
v -0.4 4.7 -0.5
v 0.4 4.7 -0.5
v -0.4 0.3 0.5
v -0.2 0.3 0.5
v 0 0.3 0.5
v 0.1 0.3 0.5
v 0.4 0.3 0.5
v -0.5 0.3 0.4
v -0.4 0.3 0.4
v -0.3 0.3 0.4
v -0.2 0.3 0.4
v -0.1 0.3 0.4
v 0 0.3 0.4
v 0.1 0.3 0.4
v 0.3 0.3 0.4
v 0.4 0.3 0.4
v 0.5 0.3 0.4
v -0.4 0.3 0.3
v -0.3 0.3 0.3
v 0.3 0.3 0.3
v 0.4 0.3 0.3
v -0.4 0.3 -0.3
v -0.3 0.3 -0.3
v 0.3 0.3 -0.3
v 0.4 0.3 -0.3
v -0.5 0.3 -0.4
v -0.4 0.3 -0.4
v -0.3 0.3 -0.4
v 0.3 0.3 -0.4
v 0.4 0.3 -0.4
v 0.5 0.3 -0.4
v -0.4 0.3 -0.5
v 0.4 0.3 -0.5
v -0.4 5 0.5
v -0.2 5 0.5
v 0 5 0.5
v 0.1 5 0.5
v 0.4 5 0.5
v -0.5 5 0.4
v -0.4 5 0.4
v -0.2 5 0.4
v 0.4 5 0.4
v 0.5 5 0.4
v 0 5 0.3
v 0.1 5 0.3
v 0.4 5 0.3
v -0.5 5 -0.4
v -0.4 5 -0.4
v 0.4 5 -0.4
v 0.5 5 -0.4
v -0.4 5 -0.5
v 0.4 5 -0.5

# faces
f 3/2/1 2/2/1 1/2/1
f 4/2/1 2/2/1 3/2/1
f 7/2/1 6/2/1 5/2/1
f 8/2/1 6/2/1 7/2/1
f 13/1/1 10/1/1 9/1/1
f 14/1/1 10/1/1 13/1/1
f 17/2/1 12/2/1 11/2/1
f 18/2/1 12/2/1 17/2/1
f 21/2/1 16/2/1 15/2/1
f 22/2/1 16/2/1 21/2/1
f 25/1/1 20/1/1 19/1/1
f 26/1/1 20/1/1 25/1/1
f 27/2/1 24/2/1 23/2/1
f 28/2/1 24/2/1 27/2/1
f 33/1/1 30/1/1 29/1/1
f 34/1/1 30/1/1 33/1/1
f 35/2/1 32/2/1 31/2/1
f 36/2/1 32/2/1 35/2/1
f 37/4/2 38/4/2 41/4/2
f 41/4/2 38/4/2 42/4/2
f 39/2/2 40/2/2 43/2/2
f 43/2/2 40/2/2 44/2/2
f 45/4/2 46/4/2 49/4/2
f 49/4/2 46/4/2 50/4/2
f 47/2/2 48/2/2 53/2/2
f 53/2/2 48/2/2 54/2/2
f 51/4/2 52/4/2 57/4/2
f 57/4/2 52/4/2 58/4/2
f 55/4/2 56/4/2 61/4/2
f 61/4/2 56/4/2 62/4/2
f 59/2/2 60/2/2 63/2/2
f 63/2/2 60/2/2 64/2/2
f 65/4/2 66/4/2 67/4/2
f 67/4/2 66/4/2 68/4/2
f 69/4/2 70/4/2 71/4/2
f 71/4/2 70/4/2 72/4/2
f 77/1/3 74/1/3 73/1/3
f 78/1/3 74/1/3 77/1/3
f 79/1/3 76/1/3 75/1/3
f 80/1/3 76/1/3 79/1/3
f 81/2/3 78/2/3 77/2/3
f 82/2/3 78/2/3 81/2/3
f 83/2/3 80/2/3 79/2/3
f 84/2/3 80/2/3 83/2/3
f 85/3/3 82/3/3 81/3/3
f 86/3/3 82/3/3 85/3/3
f 87/3/3 84/3/3 83/3/3
f 88/3/3 84/3/3 87/3/3
f 89/4/3 86/4/3 85/4/3
f 90/4/3 86/4/3 89/4/3
f 91/4/3 88/4/3 87/4/3
f 92/4/3 88/4/3 91/4/3
f 97/2/3 94/2/3 93/2/3
f 98/2/3 94/2/3 97/2/3
f 99/2/3 96/2/3 95/2/3
f 100/2/3 96/2/3 99/2/3
f 103/1/3 102/1/3 101/1/3
f 104/1/3 102/1/3 103/1/3
f 105/1/3 104/1/3 103/1/3
f 106/1/3 104/1/3 105/1/3
f 107/2/3 106/2/3 105/2/3
f 108/2/3 106/2/3 107/2/3
f 109/3/3 108/3/3 107/3/3
f 110/3/3 108/3/3 109/3/3
f 111/4/3 110/4/3 109/4/3
f 112/4/3 110/4/3 111/4/3
f 117/4/3 114/4/3 113/4/3
f 118/4/3 114/4/3 117/4/3
f 119/4/3 116/4/3 115/4/3
f 120/4/3 116/4/3 119/4/3
f 123/2/3 122/2/3 121/2/3
f 124/2/3 122/2/3 123/2/3
f 127/4/3 126/4/3 125/4/3
f 128/4/3 126/4/3 127/4/3
f 129/2/4 130/2/4 131/2/4
f 131/2/4 130/2/4 132/2/4
f 133/4/4 134/4/4 135/4/4
f 135/4/4 134/4/4 136/4/4
f 137/2/4 138/2/4 141/2/4
f 141/2/4 138/2/4 142/2/4
f 139/2/4 140/2/4 143/2/4
f 143/2/4 140/2/4 144/2/4
f 145/2/4 146/2/4 147/2/4
f 147/2/4 146/2/4 148/2/4
f 149/4/4 150/4/4 153/4/4
f 153/4/4 150/4/4 154/4/4
f 151/4/4 152/4/4 155/4/4
f 155/4/4 152/4/4 156/4/4
f 157/2/4 158/2/4 161/2/4
f 161/2/4 158/2/4 162/2/4
f 159/2/4 160/2/4 163/2/4
f 163/2/4 160/2/4 164/2/4
f 171/1/5 166/1/5 165/1/5
f 172/2/5 167/2/5 166/2/5
f 172/1/5 166/1/5 171/1/5
f 173/3/5 168/3/5 167/3/5
f 173/2/5 167/2/5 172/2/5
f 174/4/5 169/4/5 168/4/5
f 174/3/5 168/3/5 173/3/5
f 175/4/5 169/4/5 174/4/5
f 177/2/5 173/2/5 172/2/5
f 177/4/5 176/4/5 175/4/5
f 177/4/5 175/4/5 174/4/5
f 177/2/5 174/2/5 173/2/5
f 177/2/5 171/2/5 170/2/5
f 177/2/5 172/2/5 171/2/5
f 178/4/5 176/4/5 177/4/5
f 179/2/5 177/2/5 170/2/5
f 179/2/5 178/2/5 177/2/5
f 180/2/5 178/2/5 179/2/5
f 181/4/5 176/4/5 178/4/5
f 181/2/5 178/2/5 180/2/5
f 182/4/5 176/4/5 181/4/5
f 183/2/5 181/2/5 180/2/5
f 184/2/5 181/2/5 183/2/5
f 191/1/5 186/1/5 185/1/5
f 192/1/5 186/1/5 191/1/5
f 193/2/5 187/2/5 186/2/5
f 193/1/5 186/1/5 192/1/5
f 194/2/5 187/2/5 193/2/5
f 195/3/5 188/3/5 187/3/5
f 195/2/5 187/2/5 194/2/5
f 196/4/5 189/4/5 188/4/5
f 196/3/5 188/3/5 195/3/5
f 197/4/5 189/4/5 196/4/5
f 198/4/5 189/4/5 197/4/5
f 200/2/5 192/2/5 191/2/5
f 200/2/5 191/2/5 190/2/5
f 201/2/5 192/2/5 200/2/5
f 202/4/5 199/4/5 198/4/5
f 202/4/5 198/4/5 197/4/5
f 203/4/5 199/4/5 202/4/5
f 204/2/5 200/2/5 190/2/5
f 207/4/5 199/4/5 203/4/5
f 208/2/5 205/2/5 204/2/5
f 208/2/5 204/2/5 190/2/5
f 209/2/5 205/2/5 208/2/5
f 210/2/5 205/2/5 209/2/5
f 211/2/5 207/2/5 206/2/5
f 212/4/5 199/4/5 207/4/5
f 212/2/5 207/2/5 211/2/5
f 213/4/5 199/4/5 212/4/5
f 214/2/5 210/2/5 209/2/5
f 214/2/5 211/2/5 210/2/5
f 214/2/5 212/2/5 211/2/5
f 215/2/5 212/2/5 214/2/5
f 216/1/6 217/1/6 222/1/6
f 222/1/6 217/1/6 223/1/6
f 217/2/6 218/2/6 224/2/6
f 223/1/6 217/1/6 224/1/6
f 224/2/6 218/2/6 225/2/6
f 218/3/6 219/3/6 226/3/6
f 225/2/6 218/2/6 226/2/6
f 219/4/6 220/4/6 227/4/6
f 226/3/6 219/3/6 227/3/6
f 227/4/6 220/4/6 228/4/6
f 228/4/6 220/4/6 229/4/6
f 222/2/6 223/2/6 231/2/6
f 221/2/6 222/2/6 231/2/6
f 231/2/6 223/2/6 232/2/6
f 229/4/6 230/4/6 233/4/6
f 228/4/6 229/4/6 233/4/6
f 233/4/6 230/4/6 234/4/6
f 221/2/6 231/2/6 235/2/6
f 234/4/6 230/4/6 238/4/6
f 235/2/6 236/2/6 239/2/6
f 221/2/6 235/2/6 239/2/6
f 239/2/6 236/2/6 240/2/6
f 240/2/6 236/2/6 241/2/6
f 237/2/6 238/2/6 242/2/6
f 238/4/6 230/4/6 243/4/6
f 242/2/6 238/2/6 243/2/6
f 243/4/6 230/4/6 244/4/6
f 240/2/6 241/2/6 245/2/6
f 241/2/6 242/2/6 245/2/6
f 242/2/6 243/2/6 245/2/6
f 245/2/6 243/2/6 246/2/6
f 247/1/6 248/1/6 253/1/6
f 248/2/6 249/2/6 254/2/6
f 253/1/6 248/1/6 254/1/6
f 250/4/6 251/4/6 255/4/6
f 254/2/6 249/2/6 257/2/6
f 252/2/6 253/2/6 257/2/6
f 249/3/6 250/3/6 257/3/6
f 253/2/6 254/2/6 257/2/6
f 255/4/6 256/4/6 258/4/6
f 257/3/6 250/3/6 258/3/6
f 250/4/6 255/4/6 258/4/6
f 258/4/6 256/4/6 259/4/6
f 252/2/6 257/2/6 260/2/6
f 257/2/6 258/2/6 260/2/6
f 258/2/6 259/2/6 260/2/6
f 260/2/6 259/2/6 261/2/6
f 259/4/6 256/4/6 262/4/6
f 261/2/6 259/2/6 262/2/6
f 262/4/6 256/4/6 263/4/6
f 261/2/6 262/2/6 264/2/6
f 264/2/6 262/2/6 265/2/6
